<svg xmlns="http://www.w3.org/2000/svg" viewBox="0 0 295.5 80.46"><defs><style>.cls-1{isolation:isolate;}.cls-2{fill:#f3e44a;}.cls-3{fill:#157eff;}.cls-4{fill:#666;}</style></defs><title>자산 1</title><g id="레이어_2" data-name="레이어 2"><g id="레이어_1-2" data-name="레이어 1"><g class="cls-1"><g class="cls-1"><path class="cls-2" d="M16.49,45.88V15.67q0-5.16-1.53-7.61a5.18,5.18,0,0,0-4.72-2.44c-1.07,0-1.6-.28-1.6-.84s.52-.88,1.56-.88l2,.08c.78.05,1.86.08,3.24.08,1.93,0,3.41,0,4.46-.08l4.37-.27c1.38-.08,2.68-.12,3.91-.12Q36.8,3.59,41.74,7a10.9,10.9,0,0,1,4.94,9.46,11,11,0,0,1-5.15,9.66l-1.68,1.18c-.39.23-.58.43-.55.58s.7.54,2,.82a11.92,11.92,0,0,1,7.07,4.69,13.8,13.8,0,0,1,2.78,8.5,15.1,15.1,0,0,1-5.3,11.85q-5.3,4.66-13.45,4.66l-3-.12-3.63-.15L22.62,58c-2.08-.13-3.74-.19-5-.19a27.45,27.45,0,0,0-3.12.15,24.28,24.28,0,0,1-2.66.24c-.73,0-1.09-.28-1.09-.84s.39-.7,1.17-.8a4.26,4.26,0,0,0,3.94-3.68A34.93,34.93,0,0,0,16.49,45.88Zm8.13-15.57a3.8,3.8,0,0,0-1.78.25c-.25.17-.38.58-.38,1.23v18l-.07,1.79.23,1.52a3.93,3.93,0,0,0,2.84,2.4,25.37,25.37,0,0,0,7.06.72q6.15,0,9.55-3.21t3.4-9a13.63,13.63,0,0,0-3.73-9.83,12.5,12.5,0,0,0-9.41-3.9Zm.51-2.74h6.46q9.81,0,9.82-8.83A11.77,11.77,0,0,0,37.22,9.6,15,15,0,0,0,26.89,5.89c-1.8,0-3,.26-3.56.76s-.87,1.57-.87,3.19V25.5c0,.91.15,1.49.45,1.72A4.24,4.24,0,0,0,25.13,27.57Z"/></g></g><g class="cls-1"><g class="cls-1"><path class="cls-3" d="M8,46.73V16.15c0-3.49-.51-6-1.54-7.71A5.25,5.25,0,0,0,1.62,6C.54,6,0,5.69,0,5.12s.53-.89,1.58-.89l2,.08c.79.05,1.88.08,3.28.08,2,0,3.46,0,4.51-.08L15.82,4q2.1-.12,4-.12,8.73,0,13.74,3.49a11.05,11.05,0,0,1,5,9.58,11.1,11.1,0,0,1-5.22,9.78L31.6,28c-.39.24-.58.43-.55.59s.71.54,2.05.83a12.08,12.08,0,0,1,7.16,4.74,14,14,0,0,1,2.81,8.62,15.29,15.29,0,0,1-5.36,12q-5.35,4.72-13.62,4.72L21,59.32l-3.68-.16L14.16,59c-2.11-.13-3.78-.2-5-.2A26,26,0,0,0,6,58.93a24,24,0,0,1-2.69.23c-.74,0-1.1-.28-1.1-.85s.39-.7,1.18-.81a4.32,4.32,0,0,0,4-3.72A35.77,35.77,0,0,0,8,46.73ZM16.18,31a3.9,3.9,0,0,0-1.8.25c-.25.17-.38.59-.38,1.25V50.71l-.08,1.82.24,1.54A4,4,0,0,0,17,56.5a26,26,0,0,0,7.15.73q6.22,0,9.67-3.26t3.45-9.1a13.8,13.8,0,0,0-3.79-10A12.64,12.64,0,0,0,24,31Zm.52-2.77h6.54q9.95,0,9.94-8.94A11.89,11.89,0,0,0,28.94,10,15.2,15.2,0,0,0,18.48,6.25c-1.82,0-3,.25-3.61.77S14,8.61,14,10.24V26.1c0,.92.15,1.5.46,1.74A4.27,4.27,0,0,0,16.7,28.2Z"/></g></g><g class="cls-1"><g class="cls-1"><path d="M109.46,37.62H95.32c-1.93,0-3.13.15-3.59.47a8.39,8.39,0,0,0-1.88,3.13L87.29,47a16.68,16.68,0,0,0-1.74,5.87,3.44,3.44,0,0,0,.92,2.67,8.57,8.57,0,0,0,3.61,1.4c.79.16,1.19.46,1.22.92s-.34.65-1.1.65c-.28,0-.72,0-1.32,0l-3.74-.22c-1.25-.06-2.69-.09-4.33-.09-.75,0-1.33,0-1.75.06-1.32.14-2,.22-2.18.22q-1,0-1-.72a.82.82,0,0,1,.66-.84l1.45-.44a5.48,5.48,0,0,0,2.11-1.89,18,18,0,0,0,2.18-3.46l1.14-2.58,20.07-44.6Q104,2.7,104.58,2.7c.41,0,.76.37,1,1.13l16.8,43,.86,2.11c1.22,3.16,2.24,5.12,3,5.89s2.45,1.38,4.93,1.82c.8.15,1.19.47,1.17,1s-.39.65-1.1.65c-.23,0-.73,0-1.48-.08q-2-.2-7.23-.19a58.05,58.05,0,0,0-6.79.23,6.76,6.76,0,0,1-1.21.16c-.68,0-1-.27-1-.8s.33-.68,1-.8l1.21-.28a2.36,2.36,0,0,0,1.95-2.66q0-2.07-2.38-8.26l-2-5.16A6.73,6.73,0,0,0,112.12,38,6.12,6.12,0,0,0,109.46,37.62Zm.47-6.29L103.8,15.86l-.32-.82c-.31-.83-.65-1.26-1-1.29-.19,0-.39.22-.63.74L94.23,31.41a4.68,4.68,0,0,0-.51,1.44c0,.68.6,1,1.79,1l1.06,0h11.8c1.3,0,1.95-.33,1.95-1a3.63,3.63,0,0,0-.2-.9Z"/></g><g class="cls-1"><path d="M142.06,30V49.61q0,3.82,1.09,5a6,6,0,0,0,4.57,1.68,8.67,8.67,0,0,0,4-.86l2-1,.23-.07c.31,0,.47.14.47.42,0,.85-1,1.78-3.09,2.77A13.17,13.17,0,0,1,145.65,59q-9,0-9-9.36V30h-3.48c-.68,0-1-.2-1-.59s.34-.84,1-1.41a34,34,0,0,0,7-7.76c.71-1.15,1.2-1.72,1.49-1.72s.54.34.54,1l-.15,6.76h8.32a4.81,4.81,0,0,0,2.65-.62,2.24,2.24,0,0,1,.86-.47c.29-.06.42.09.39.43a3.43,3.43,0,0,1-.35,1l-.9,2.25A1.66,1.66,0,0,1,151.32,30Z"/><path d="M166.2,30V49.61q0,3.82,1.09,5a6,6,0,0,0,4.57,1.68,8.67,8.67,0,0,0,4-.86l2-1,.23-.07c.31,0,.47.14.47.42,0,.85-1,1.78-3.09,2.77A13.17,13.17,0,0,1,169.79,59q-9,0-9-9.36V30h-3.48c-.68,0-1-.2-1-.59s.33-.84,1-1.41a34,34,0,0,0,7-7.76c.71-1.15,1.2-1.72,1.49-1.72s.54.34.54,1l-.15,6.76h8.32a4.81,4.81,0,0,0,2.65-.62,2.32,2.32,0,0,1,.86-.47c.29-.06.42.09.39.43a3.43,3.43,0,0,1-.35,1l-.9,2.25A1.65,1.65,0,0,1,175.46,30Z"/><path d="M186.16,38.59l0,.86a17.18,17.18,0,0,0,3.7,11.23,11.29,11.29,0,0,0,9.1,4.55q4.26,0,9.27-3.82a1.32,1.32,0,0,1,.59-.28c.36,0,.54.18.54.62q0,1.17-2.73,3.31a17.21,17.21,0,0,1-10.74,4,13.77,13.77,0,0,1-10.69-4.83,17.38,17.38,0,0,1-4.31-12,17.46,17.46,0,0,1,4.45-11.88q4.45-5.1,10.43-5.1a12.23,12.23,0,0,1,10.43,5.43,20.79,20.79,0,0,1,1.91,3.6,9.86,9.86,0,0,1,1,3.16c0,.86-.85,1.29-2.54,1.29l-2.9,0L201,38.59Zm.23-2.14h13.25c2.05,0,3.08-.42,3.08-1.25a7.89,7.89,0,0,0-2.64-5.67,8,8,0,0,0-5.72-2.62A6.68,6.68,0,0,0,189,29.47,13,13,0,0,0,186.39,36.45Z"/><path d="M225,31.45q5.24-6.22,10.86-6.22a11.49,11.49,0,0,1,9.88,5.13q2.49,3.53,2.5,10.71v9.35l0,1.18.12,1.87a3.46,3.46,0,0,0,3.28,3l1.64.24c.7.1,1.07.35,1.09.76,0,.56-.4.84-1.28.84-.29,0-.8,0-1.52-.13A41,41,0,0,0,246.8,58l-3.85.11h-1.48l-1.13.08-.55-.12a.63.63,0,0,1-.27-.6c0-.4.23-.65.7-.76l1.17-.31c1-.26,1.57-1.2,1.57-2.81V40.14q0-5.41-2.51-8.37a8.84,8.84,0,0,0-7.12-2.94,9.36,9.36,0,0,0-5.78,1.91A5.48,5.48,0,0,0,225,35.12V50l0,1.17,0,2q.19,3.29,5.43,3.6,1.29.12,1.29.84t-.9.72a13,13,0,0,1-2-.22c-.49-.06-1.72-.09-3.67-.09q-6.21,0-7.42.18c-.81.08-1.33.13-1.56.13-.5,0-.73-.21-.71-.64s.28-.58.75-.77A5.2,5.2,0,0,0,219,55.2a6,6,0,0,0,.68-3.28V34.29a7.38,7.38,0,0,0-.66-3.76,2.78,2.78,0,0,0-2.5-1l-1.68,0a1.17,1.17,0,0,1-.62-.16.57.57,0,0,1-.36-.56c0-.38.34-.63,1-.76a20.56,20.56,0,0,0,5-1.61l2.07-1,1.52-.74a2,2,0,0,1,.94-.32q.7,0,.63,1.14c0,.41,0,.91,0,1.48Z"/><path d="M284.32,53.24a32.37,32.37,0,0,1-6.45,4.6,12.82,12.82,0,0,1-5.6,1.18,12.58,12.58,0,0,1-9.89-4.6,16.79,16.79,0,0,1-4-11.39,17.93,17.93,0,0,1,4.77-12.65,15.4,15.4,0,0,1,11.72-5.15A18.47,18.47,0,0,1,284.32,28V12.61c0-4.94-1.32-7.34-4-7.18L279,5.51a1.7,1.7,0,0,1-.51-.08.68.68,0,0,1-.43-.6q-.07-.81,1.14-1a24.26,24.26,0,0,0,9.17-3.6,1.49,1.49,0,0,1,.75-.27c.39,0,.58.29.58.86l0,.7V51.21q0,4.41,2.7,4.41l2.3-.07.36,0a.6.6,0,0,1,.43.61c0,.56-.48.89-1.42,1s-1.75.18-2,.23l-2.2.35a14.06,14.06,0,0,0-3.45.82,2.58,2.58,0,0,1-1.18.43c-.6,0-.9-.62-.9-1.94Zm0-4.72V35.65q0-3.51-1.71-5.15a12.75,12.75,0,0,0-9.15-3.7,9.28,9.28,0,0,0-7.6,3.59Q263,34,263,39.83a17.1,17.1,0,0,0,3.79,11.09q3.79,4.71,9,4.7a9.43,9.43,0,0,0,6.21-2A6.32,6.32,0,0,0,284.32,48.52Z"/></g></g><g class="cls-1"><g class="cls-1"><path class="cls-4" d="M8.18,78.05V72.39A2.78,2.78,0,0,0,7.89,71,1,1,0,0,0,7,70.5q-.3,0-.3-.15c0-.11.09-.17.29-.17l.37,0H8.82l.82-.06.73,0a4.36,4.36,0,0,1,2.54.65,2.16,2.16,0,0,1,0,3.58l-.31.22c-.08.05-.11.08-.1.11s.13.1.38.16a2.19,2.19,0,0,1,1.32.88,2.55,2.55,0,0,1,.52,1.59,2.82,2.82,0,0,1-1,2.22,3.68,3.68,0,0,1-2.52.88l-.57,0-.68,0-.59,0c-.39,0-.7,0-.93,0a4.91,4.91,0,0,0-.59,0,4.13,4.13,0,0,1-.5,0c-.13,0-.2,0-.2-.15s.07-.13.22-.15a.81.81,0,0,0,.74-.69A6.82,6.82,0,0,0,8.18,78.05ZM9.7,75.13a.74.74,0,0,0-.33.05s-.07.11-.07.23v3.38l0,.34.05.28a.73.73,0,0,0,.53.45,4.74,4.74,0,0,0,1.32.14A2.5,2.5,0,0,0,13,79.39a2.18,2.18,0,0,0,.64-1.68,2.57,2.57,0,0,0-.7-1.85,2.36,2.36,0,0,0-1.76-.73Zm.1-.51H11c1.23,0,1.84-.55,1.84-1.66a2.21,2.21,0,0,0-.78-1.71,2.85,2.85,0,0,0-1.94-.7,1,1,0,0,0-.67.15.77.77,0,0,0-.16.59v2.94c0,.17,0,.28.08.32A.76.76,0,0,0,9.8,74.62Z"/><path class="cls-4" d="M17.9,79.07a1.53,1.53,0,0,0,.11.7.68.68,0,0,0,.48.23l.34,0c.17,0,.26.09.25.19s-.07.12-.19.12l-.48,0-.52,0h-.47l-.53,0-.23,0a1.55,1.55,0,0,1-.26,0c-.14,0-.2,0-.2-.13a.16.16,0,0,1,.13-.16l.14,0a.53.53,0,0,0,.32-.28,1.44,1.44,0,0,0,.1-.64V75.92a1.72,1.72,0,0,0-.12-.8.58.58,0,0,0-.51-.18c-.18,0-.27,0-.27-.11s.13-.14.38-.22a7.55,7.55,0,0,0,1-.47L17.8,74c.07,0,.1.06.1.18Zm-.46-8c.12,0,.24.1.36.29l.18.28a.32.32,0,0,1,.07.19.79.79,0,0,1-.25.47c-.17.2-.31.3-.41.3s-.23-.1-.39-.29a.89.89,0,0,1-.25-.47.86.86,0,0,1,.27-.47Q17.29,71.09,17.44,71.09Z"/><path class="cls-4" d="M23.1,74.11a3.1,3.1,0,0,1,2.26.93,3,3,0,0,1,.95,2.21,3.06,3.06,0,0,1-.93,2.29,3.23,3.23,0,0,1-2.36.91,3.1,3.1,0,0,1-2.28-.88,3.22,3.22,0,0,1,.05-4.52A3.19,3.19,0,0,1,23.1,74.11Zm-.19.3a1.78,1.78,0,0,0-1.47.68,2.65,2.65,0,0,0-.56,1.77,3.8,3.8,0,0,0,.7,2.34,2.07,2.07,0,0,0,1.73.94,1.72,1.72,0,0,0,1.43-.66,2.87,2.87,0,0,0,.53-1.81,3.87,3.87,0,0,0-.66-2.35A2,2,0,0,0,22.91,74.41Z"/><path class="cls-4" d="M29.41,75.1a2.45,2.45,0,0,1,1.93-1,2.08,2.08,0,0,1,1.06.25,2.49,2.49,0,0,1,.77.85,2.48,2.48,0,0,1,2-1.1,2,2,0,0,1,1.55.64,2.59,2.59,0,0,1,.56,1.77v2.35a1.3,1.3,0,0,0,.22.84,1,1,0,0,0,.72.32c.12,0,.18.07.18.16s-.06.13-.18.13l-.22,0a4.41,4.41,0,0,0-.73,0c-.65,0-1.06,0-1.22,0l-.22,0c-.12,0-.19,0-.19-.14s0-.1.12-.14a1,1,0,0,0,.42-.24.58.58,0,0,0,.1-.38V76.77a2.44,2.44,0,0,0-.42-1.53,1.38,1.38,0,0,0-1.17-.55,1.61,1.61,0,0,0-1,.31.82.82,0,0,0-.46.65,1.62,1.62,0,0,0,0,.18,3,3,0,0,1,0,.51V79a1.2,1.2,0,0,0,.19.78,1,1,0,0,0,.7.26c.16,0,.24.07.24.17s-.07.13-.21.13l-.23,0a6.24,6.24,0,0,0-.69,0,10.76,10.76,0,0,0-1.27,0l-.23,0c-.12,0-.18,0-.18-.13s.05-.1.13-.13c.26-.09.42-.18.46-.27a1.94,1.94,0,0,0,.08-.72V76.36a1.72,1.72,0,0,0-.4-1.21,1.39,1.39,0,0,0-1.1-.44,1.56,1.56,0,0,0-1,.33,1.06,1.06,0,0,0-.4.87v3.14a1,1,0,0,0,.21.7,1.12,1.12,0,0,0,.71.27c.15,0,.22.08.22.17s-.05.13-.17.13l-.36,0-.6,0H28.17l-.27,0c-.13,0-.19,0-.19-.13s.06-.13.16-.17a.71.71,0,0,0,.44-.26,1.45,1.45,0,0,0,.09-.63V75.86a1.76,1.76,0,0,0-.11-.73.45.45,0,0,0-.42-.19h-.33a.21.21,0,0,1-.12,0,.08.08,0,0,1,0-.08c0-.06.05-.11.17-.15A6,6,0,0,0,29,74.11,1.15,1.15,0,0,1,29.3,74c.07,0,.11.09.11.27Z"/></g><g class="cls-1"><path class="cls-4" d="M40.19,76.62v.16a3.26,3.26,0,0,0,.69,2.11,2.13,2.13,0,0,0,1.7.85A2.91,2.91,0,0,0,44.32,79a.34.34,0,0,1,.11,0c.07,0,.11,0,.11.12s-.18.35-.52.62a3.23,3.23,0,0,1-2,.74,2.54,2.54,0,0,1-2-.91,3.23,3.23,0,0,1-.81-2.24A3.27,3.27,0,0,1,40,75.07a2.53,2.53,0,0,1,2-1,2.29,2.29,0,0,1,1.95,1,3.49,3.49,0,0,1,.36.68,1.85,1.85,0,0,1,.18.59c0,.16-.15.24-.47.24H40.19Zm.05-.4h2.48c.38,0,.58-.08.58-.24a1.71,1.71,0,0,0-1.57-1.55,1.25,1.25,0,0,0-1,.48A2.39,2.39,0,0,0,40.24,76.22Z"/></g><g class="cls-1"><path class="cls-4" d="M47,75v3.69a1.38,1.38,0,0,0,.21.92,1.09,1.09,0,0,0,.86.32,1.57,1.57,0,0,0,.75-.16l.38-.18,0,0a.07.07,0,0,1,.08.08c0,.16-.19.33-.58.52a2.4,2.4,0,0,1-1.07.28c-1.13,0-1.69-.59-1.69-1.76V75h-.65c-.13,0-.19,0-.19-.11s.06-.16.19-.26a6.39,6.39,0,0,0,1.31-1.46c.13-.22.23-.32.28-.32s.1.06.1.19l0,1.26H48.6a.88.88,0,0,0,.5-.11.37.37,0,0,1,.16-.09c.06,0,.08,0,.08.08a.94.94,0,0,1-.07.19l-.17.42a.31.31,0,0,1-.32.21Z"/><path class="cls-4" d="M51.86,75.45c.56-.89,1.08-1.34,1.56-1.34a1.11,1.11,0,0,1,.6.28c.25.18.38.32.38.44s-.07.2-.23.4-.27.29-.34.3a1.09,1.09,0,0,1-.32-.18,1.11,1.11,0,0,0-.6-.22,1,1,0,0,0-.75.33,1.12,1.12,0,0,0-.3.8v2.61a1.68,1.68,0,0,0,.17.87.68.68,0,0,0,.57.3l.38,0q.24,0,.24.15c0,.09-.07.14-.21.14l-.34,0-.41,0H51.4a6.83,6.83,0,0,0-.81,0l-.26,0c-.14,0-.2,0-.2-.15s.07-.13.22-.16a.56.56,0,0,0,.41-.27,2.44,2.44,0,0,0,.09-.84V75.81c0-.56-.27-.84-.8-.84H49.8c-.11,0-.17,0-.17-.15a.16.16,0,0,1,.11-.14l.16,0A4,4,0,0,0,51.53,74a.32.32,0,0,1,.16-.06c.12,0,.17.08.17.25v1.23Z"/><path class="cls-4" d="M57.07,79.07a1.53,1.53,0,0,0,.11.7.68.68,0,0,0,.48.23L58,80c.18,0,.26.09.26.19s-.07.12-.2.12l-.48,0-.51,0H56.6l-.54,0-.23,0a1.49,1.49,0,0,1-.26,0c-.13,0-.2,0-.2-.13a.17.17,0,0,1,.13-.16l.14,0a.55.55,0,0,0,.33-.28,1.63,1.63,0,0,0,.09-.64V75.92a1.72,1.72,0,0,0-.12-.8c-.08-.12-.24-.18-.5-.18s-.28,0-.27-.11.13-.14.37-.22a7.58,7.58,0,0,0,1.05-.47L57,74c.06,0,.09.06.09.18Zm-.46-8c.12,0,.24.1.36.29l.18.28a.32.32,0,0,1,.07.19.74.74,0,0,1-.25.47c-.17.2-.31.3-.41.3s-.23-.1-.39-.29a.56.56,0,0,1,0-.94C56.38,71.19,56.52,71.09,56.61,71.09Z"/><path class="cls-4" d="M62.21,74.11a3.83,3.83,0,0,1,1.12.16c.33.11.49.23.49.36v.22l0,.56c0,.26-.06.39-.18.4s-.13-.06-.21-.21a1.94,1.94,0,0,0-.79-.73,2.11,2.11,0,0,0-1.07-.31,1.39,1.39,0,0,0-1.17.66A2.88,2.88,0,0,0,60,76.9,3.11,3.11,0,0,0,60.7,79a2.13,2.13,0,0,0,1.71.84A2.45,2.45,0,0,0,64,79.15a.26.26,0,0,1,.18-.09c.07,0,.11,0,.11.1s-.11.27-.35.47a3.11,3.11,0,0,1-2.18.82,2.55,2.55,0,0,1-2-.85A3,3,0,0,1,59,77.49,3.32,3.32,0,0,1,60,75.1,3,3,0,0,1,62.21,74.11Z"/><path class="cls-4" d="M72.18,77v-.91A1.63,1.63,0,0,0,71.87,75a1.55,1.55,0,0,0-1.15-.44q-1,0-1,.81a2.09,2.09,0,0,0,.09.56.68.68,0,0,1,.05.23c0,.08,0,.13-.14.13a1.26,1.26,0,0,1-.62-.15c-.19-.1-.28-.2-.28-.32a1.49,1.49,0,0,1,.49-1,2.28,2.28,0,0,1,1.75-.71,2.36,2.36,0,0,1,1.54.45,1.49,1.49,0,0,1,.55,1.24v2.87a2,2,0,0,0,.17,1,.58.58,0,0,0,.55.29h.17l.18,0c.08,0,.12,0,.12.1s-.12.18-.35.27a1.72,1.72,0,0,1-.66.13,1.36,1.36,0,0,1-1.09-.75,3.31,3.31,0,0,1-2,.81,1.58,1.58,0,0,1-1.1-.37,1.28,1.28,0,0,1-.4-1,1.45,1.45,0,0,1,.77-1.31A7.38,7.38,0,0,1,72.18,77Zm0,.29a3.82,3.82,0,0,0-1.75.51,1.23,1.23,0,0,0-.62,1.06A1,1,0,0,0,70.9,80a1.46,1.46,0,0,0,1-.4,1.11,1.11,0,0,0,.25-.81Z"/><path class="cls-4" d="M77.1,75.28a2.71,2.71,0,0,1,2-1.17,2.15,2.15,0,0,1,1.85,1,3.43,3.43,0,0,1,.47,2v2l0,.35a.64.64,0,0,0,.61.56l.31,0c.13,0,.2.07.21.14s-.08.16-.25.16l-.28,0a8.63,8.63,0,0,0-.89,0l-.72,0h-.28l-.21,0-.11,0a.12.12,0,0,1,0-.11.15.15,0,0,1,.13-.14l.22-.06c.2,0,.3-.22.3-.53V76.91A2.37,2.37,0,0,0,80,75.34a1.66,1.66,0,0,0-1.34-.55,1.73,1.73,0,0,0-1.08.36,1,1,0,0,0-.47.82v3.38c0,.41.36.64,1,.67.16,0,.24.07.24.16s-.06.14-.17.14l-.37,0c-.1,0-.32,0-.69,0-.78,0-1.24,0-1.39,0l-.3,0c-.09,0-.13,0-.13-.12a.2.2,0,0,1,.14-.15.89.89,0,0,0,.5-.32,1.06,1.06,0,0,0,.13-.61V75.81a1.41,1.41,0,0,0-.12-.7.52.52,0,0,0-.47-.19h-.32a.2.2,0,0,1-.11,0,.11.11,0,0,1-.07-.11c0-.07.06-.11.19-.14a4,4,0,0,0,1-.3l.38-.19.29-.14A.38.38,0,0,1,77,74c.08,0,.12.07.11.21v1.11Z"/><path class="cls-4" d="M88.21,79.37a6.22,6.22,0,0,1-1.21.86,2.48,2.48,0,0,1-2.9-.64,3.16,3.16,0,0,1-.75-2.14,3.35,3.35,0,0,1,.9-2.37,2.88,2.88,0,0,1,2.19-1,3.53,3.53,0,0,1,1.77.52V71.75c0-.93-.25-1.38-.74-1.35l-.26,0-.1,0a.15.15,0,0,1-.08-.11c0-.1.07-.16.22-.18A4.77,4.77,0,0,0,89,69.44a.24.24,0,0,1,.14-.06c.07,0,.11.06.11.16V79c0,.55.17.82.51.82h.5a.11.11,0,0,1,.08.11c0,.1-.09.17-.27.18l-.38.05-.41.07a3,3,0,0,0-.65.15.49.49,0,0,1-.22.08c-.11,0-.17-.12-.17-.36Zm0-.89V76.07a1.28,1.28,0,0,0-.32-1,2.39,2.39,0,0,0-1.71-.69,1.74,1.74,0,0,0-1.43.67,2.75,2.75,0,0,0-.54,1.77,3.18,3.18,0,0,0,.71,2.08,2.09,2.09,0,0,0,1.68.88,1.72,1.72,0,0,0,1.16-.37A1.18,1.18,0,0,0,88.21,78.48Z"/><path class="cls-4" d="M96.27,78.05V72.39A2.78,2.78,0,0,0,96,71a1,1,0,0,0-.88-.46q-.3,0-.3-.15c0-.11.1-.17.29-.17l.37,0h1.45l.82-.06.73,0a4.36,4.36,0,0,1,2.54.65,2.16,2.16,0,0,1,0,3.58l-.31.22c-.07.05-.11.08-.1.11s.13.1.38.16a2.16,2.16,0,0,1,1.32.88,2.55,2.55,0,0,1,.52,1.59,2.82,2.82,0,0,1-1,2.22,3.68,3.68,0,0,1-2.52.88l-.57,0-.68,0-.59,0c-.39,0-.7,0-.93,0a4.91,4.91,0,0,0-.59,0,4.15,4.15,0,0,1-.49,0q-.21,0-.21-.15c0-.08.07-.13.22-.15a.8.8,0,0,0,.74-.69A6.82,6.82,0,0,0,96.27,78.05Zm1.52-2.92a.74.74,0,0,0-.33.05s-.07.11-.07.23v3.72l0,.28a.75.75,0,0,0,.53.45,4.78,4.78,0,0,0,1.33.14,2.54,2.54,0,0,0,1.79-.61,2.21,2.21,0,0,0,.63-1.68,2.57,2.57,0,0,0-.7-1.85,2.34,2.34,0,0,0-1.76-.73Zm.1-.51H99.1c1.23,0,1.84-.55,1.84-1.66a2.21,2.21,0,0,0-.78-1.71,2.85,2.85,0,0,0-1.94-.7,1,1,0,0,0-.67.15.77.77,0,0,0-.16.59v2.94c0,.17,0,.28.09.32A.7.7,0,0,0,97.89,74.62Z"/><path class="cls-4" d="M106.44,78.29v.25a1.87,1.87,0,0,0,.17,1,2.17,2.17,0,0,0,1.1.16,7.69,7.69,0,0,0,2.38-.33,2.12,2.12,0,0,0,1.29-.86c.07-.13.13-.2.2-.2s.12,0,.11.15a2.07,2.07,0,0,1-.47,1.06,2.47,2.47,0,0,1-2,.79l-.54,0-.79-.06c-.47,0-1,0-1.48,0a10.64,10.64,0,0,0-1.51.09l-.41,0c-.12,0-.18,0-.18-.13s.06-.13.2-.17a1.11,1.11,0,0,0,.68-.45,2.06,2.06,0,0,0,.17-1v-6.9c0-.65-.26-1-.79-1.13l-.33-.07c-.12,0-.18-.07-.18-.14s.09-.17.25-.17l.46,0c.33,0,.71,0,1.12,0s.86,0,1.22,0h.32c.11,0,.17,0,.17.1s-.07.18-.21.21l-.26.06c-.44.11-.66.54-.66,1.31Z"/><path class="cls-4" d="M114.61,71.41v3a.8.8,0,0,0,.06.41s.17.07.38.07h1.13a6.35,6.35,0,0,0,1.21-.09,1,1,0,0,0,.52-.21,1.75,1.75,0,0,0,.21-.62c0-.12.09-.18.19-.17s.14.07.14.2,0,.08,0,.16c0,.47-.07.9-.07,1.29a8.49,8.49,0,0,0,0,.88,2,2,0,0,1,0,.22c0,.12,0,.18-.14.18a.18.18,0,0,1-.19-.16l0-.21a1,1,0,0,0-.35-.66,1.65,1.65,0,0,0-.89-.18H115.2a1,1,0,0,0-.48.07.33.33,0,0,0-.12.3v2.94c0,.41.07.67.22.78a2.55,2.55,0,0,0,1.13.15c1.92,0,3.15-.43,3.7-1.3a.26.26,0,0,1,.16-.13c.09,0,.14.06.14.19a1.9,1.9,0,0,1-.54,1.13,2,2,0,0,1-1.62.79l-.58,0c-.93-.09-1.7-.13-2.31-.13a12.39,12.39,0,0,0-1.81.09l-.38.05c-.16,0-.23-.05-.23-.16s.06-.14.19-.17L113,80c.36-.1.53-.44.53-1V72.26a3,3,0,0,0-.23-1.41,1,1,0,0,0-.9-.37c-.14,0-.21,0-.21-.13s.11-.21.33-.21l.49,0a22.62,22.62,0,0,0,2.52.12c.59,0,1.12,0,1.58,0l1,0,.53,0,.29,0q.24,0,.24.21a.56.56,0,0,1,0,.17c0,.07,0,.26-.06.58l0,.43a3,3,0,0,1-.07.53.17.17,0,0,1-.17.11c-.09,0-.14-.06-.14-.21v-.2a1.12,1.12,0,0,0-.09-.44.76.76,0,0,0-.56-.44,7.48,7.48,0,0,0-1.56-.11h-1.14a1.05,1.05,0,0,0-.59.11A.7.7,0,0,0,114.61,71.41Z"/><path class="cls-4" d="M126.32,75.05a5.27,5.27,0,0,1,1.15-.73,2.59,2.59,0,0,1,1.05-.21,2.38,2.38,0,0,1,1.86.82,3.08,3.08,0,0,1,.72,2.1,3.59,3.59,0,0,1-.87,2.44,2.73,2.73,0,0,1-2.13,1,3.13,3.13,0,0,1-2-.71q-.12-.1-.18-.09c-.07,0-.16.14-.29.4s-.25.39-.32.39-.13-.06-.13-.19a2.19,2.19,0,0,1,0-.3,4,4,0,0,0,.06-.82V71.85a3,3,0,0,0-.12-1.08,1.07,1.07,0,0,0-.21-.22.39.39,0,0,0-.23-.11l-.46,0h-.06a.11.11,0,0,1-.06-.11c0-.09.08-.15.24-.19a5.49,5.49,0,0,0,1.63-.64.47.47,0,0,1,.16,0c.08,0,.12.07.12.22Zm0,.86v2.58l.11.5a1.79,1.79,0,0,0,.75.8,2.12,2.12,0,0,0,1.12.32,1.81,1.81,0,0,0,1.49-.68,2.77,2.77,0,0,0,.55-1.81,3.22,3.22,0,0,0-.73-2.08,2.14,2.14,0,0,0-1.69-.91,1.87,1.87,0,0,0-1.34.57A.93.93,0,0,0,126.32,75.91Z"/><path class="cls-4" d="M135.64,77v-.91a1.63,1.63,0,0,0-.32-1.15,1.51,1.51,0,0,0-1.14-.44c-.64,0-1,.27-1,.81a2.14,2.14,0,0,0,.1.56,1.06,1.06,0,0,1,.05.23c0,.08,0,.13-.15.13a1.32,1.32,0,0,1-.62-.15c-.18-.1-.28-.2-.28-.32a1.54,1.54,0,0,1,.49-1,2.3,2.3,0,0,1,1.75-.71,2.39,2.39,0,0,1,1.55.45,1.49,1.49,0,0,1,.55,1.24v2.87a2.07,2.07,0,0,0,.16,1,.6.6,0,0,0,.56.29h.17l.18,0c.08,0,.12,0,.11.1s-.12.18-.34.27a1.8,1.8,0,0,1-.66.13,1.34,1.34,0,0,1-1.09-.75,3.33,3.33,0,0,1-2,.81,1.55,1.55,0,0,1-1.09-.37,1.28,1.28,0,0,1-.4-1,1.46,1.46,0,0,1,.76-1.31A7.44,7.44,0,0,1,135.64,77Zm0,.29a3.91,3.91,0,0,0-1.76.51,1.25,1.25,0,0,0-.62,1.06,1,1,0,0,0,.3.79,1.07,1.07,0,0,0,.8.3,1.44,1.44,0,0,0,1-.4,1.11,1.11,0,0,0,.26-.81Z"/><path class="cls-4" d="M140.58,74.11a3,3,0,0,1,1,.16l.32.1c.13,0,.2.13.2.23v.11a1.48,1.48,0,0,0,0,.21l0,.29a1.32,1.32,0,0,1,0,.27c0,.2,0,.29-.16.3s-.12-.06-.17-.19a1.5,1.5,0,0,0-1.5-1.12,1.09,1.09,0,0,0-.73.25.84.84,0,0,0-.28.63.81.81,0,0,0,.31.66,4.91,4.91,0,0,0,1.22.61,3.27,3.27,0,0,1,1.27.76,1.52,1.52,0,0,1,.36,1.07,1.91,1.91,0,0,1-.61,1.41,2.06,2.06,0,0,1-1.46.59,2.9,2.9,0,0,1-1.32-.35l-.21-.08-.2,0a.18.18,0,0,1-.18-.18v-.31l0-.94,0-.22c0-.13.07-.19.16-.2s.15.07.18.22a2.33,2.33,0,0,0,.6,1.26,1.43,1.43,0,0,0,1.06.45,1.25,1.25,0,0,0,.88-.31,1,1,0,0,0,.34-.81,1.2,1.2,0,0,0-.83-1.12l-.64-.28a3.79,3.79,0,0,1-1.25-.79,1.44,1.44,0,0,1-.36-1,1.47,1.47,0,0,1,.56-1.18A2,2,0,0,1,140.58,74.11Z"/><path class="cls-4" d="M144.62,76.62v.16a3.26,3.26,0,0,0,.69,2.11,2.14,2.14,0,0,0,1.71.85,2.91,2.91,0,0,0,1.73-.72.31.31,0,0,1,.12,0c.06,0,.1,0,.1.12s-.17.35-.51.62a3.27,3.27,0,0,1-2,.74,2.57,2.57,0,0,1-2-.91,3.23,3.23,0,0,1-.81-2.24,3.32,3.32,0,0,1,.83-2.23,2.53,2.53,0,0,1,2-1,2.28,2.28,0,0,1,2,1,3.49,3.49,0,0,1,.36.68,1.7,1.7,0,0,1,.19.59q0,.24-.48.24h-3.82Zm0-.4h2.48c.39,0,.58-.08.58-.24a1.69,1.69,0,0,0-1.57-1.55,1.25,1.25,0,0,0-1,.48A2.47,2.47,0,0,0,144.67,76.22Z"/><path class="cls-4" d="M154.78,79.37a6.53,6.53,0,0,1-1.21.86,2.5,2.5,0,0,1-2.91-.64,3.16,3.16,0,0,1-.75-2.14,3.35,3.35,0,0,1,.9-2.37,2.9,2.9,0,0,1,2.2-1,3.53,3.53,0,0,1,1.77.52V71.75q0-1.4-.75-1.35l-.26,0-.09,0a.12.12,0,0,1-.08-.11q0-.15.21-.18a4.77,4.77,0,0,0,1.72-.67.24.24,0,0,1,.14-.06c.07,0,.11.06.11.16V79c0,.55.17.82.5.82h.5a.11.11,0,0,1,.08.11c0,.1-.09.17-.26.18l-.39.05-.41.07a2.71,2.71,0,0,0-.64.15.59.59,0,0,1-.22.08c-.12,0-.17-.12-.17-.36Zm0-.89V76.07a1.32,1.32,0,0,0-.32-1,2.43,2.43,0,0,0-1.72-.69,1.75,1.75,0,0,0-1.43.67,2.75,2.75,0,0,0-.54,1.77,3.24,3.24,0,0,0,.71,2.08,2.12,2.12,0,0,0,1.68.88,1.76,1.76,0,0,0,1.17-.37A1.18,1.18,0,0,0,154.78,78.48Z"/></g><g class="cls-1"><path class="cls-4" d="M167,76.44H164.3a1.78,1.78,0,0,0-.68.08,1.87,1.87,0,0,0-.35.59l-.48,1.08a3.28,3.28,0,0,0-.32,1.1.62.62,0,0,0,.17.5,1.56,1.56,0,0,0,.68.26c.14,0,.22.09.22.18s-.06.12-.2.12h-.25l-.7,0-.81,0h-.33l-.41,0c-.13,0-.2,0-.2-.13a.16.16,0,0,1,.13-.16L161,80a1,1,0,0,0,.39-.36,2.63,2.63,0,0,0,.41-.65l.22-.48,3.76-8.36c.06-.15.14-.22.21-.22s.15.07.2.21l3.15,8.07.16.4a3.66,3.66,0,0,0,.57,1.1A1.91,1.91,0,0,0,171,80c.15,0,.22.09.22.18s-.08.12-.21.12h-.28c-.25,0-.7,0-1.35,0a10.86,10.86,0,0,0-1.28,0l-.22,0c-.13,0-.19,0-.19-.15s.06-.12.18-.15l.23,0a.44.44,0,0,0,.36-.5,5.65,5.65,0,0,0-.45-1.55l-.36-1a1.24,1.24,0,0,0-.24-.46A1.2,1.2,0,0,0,167,76.44Zm.09-1.18-1.15-2.9-.06-.16c-.06-.15-.12-.23-.19-.24s-.08,0-.12.14l-1.43,3.17a1,1,0,0,0-.09.27c0,.13.11.19.33.19h2.41c.25,0,.37-.06.37-.18a.49.49,0,0,0,0-.17Z"/></g><g class="cls-1"><path class="cls-4" d="M173.06,75v3.69a1.38,1.38,0,0,0,.21.92,1.08,1.08,0,0,0,.85.32,1.61,1.61,0,0,0,.76-.16l.38-.18,0,0c.06,0,.09,0,.09.08s-.19.33-.58.52a2.4,2.4,0,0,1-1.07.28c-1.13,0-1.69-.59-1.69-1.76V75h-.65c-.13,0-.19,0-.19-.11s.06-.16.19-.26a6.39,6.39,0,0,0,1.31-1.46c.13-.22.22-.32.28-.32s.1.06.1.19l0,1.26h1.56a.88.88,0,0,0,.5-.11.33.33,0,0,1,.16-.09c.05,0,.08,0,.07.08a.71.71,0,0,1-.06.19l-.17.42a.31.31,0,0,1-.32.21Z"/><path class="cls-4" d="M177.59,75v3.69a1.46,1.46,0,0,0,.2.92,1.1,1.1,0,0,0,.86.32,1.54,1.54,0,0,0,.75-.16l.39-.18,0,0c.06,0,.09,0,.09.08s-.2.33-.58.52a2.48,2.48,0,0,1-1.08.28c-1.12,0-1.68-.59-1.68-1.76V75h-.66c-.12,0-.19,0-.19-.11s.07-.16.19-.26a6.45,6.45,0,0,0,1.32-1.46c.13-.22.22-.32.27-.32s.11.06.11.19l0,1.26h1.56a.91.91,0,0,0,.5-.11.29.29,0,0,1,.16-.09c.05,0,.07,0,.07.08a.55.55,0,0,1-.07.19l-.16.42a.33.33,0,0,1-.33.21Z"/><path class="cls-4" d="M181.33,76.62v.16a3.22,3.22,0,0,0,.7,2.11,2.13,2.13,0,0,0,1.7.85,3,3,0,0,0,1.74-.72.34.34,0,0,1,.11,0c.07,0,.1,0,.1.12s-.17.35-.51.62a3.25,3.25,0,0,1-2,.74,2.57,2.57,0,0,1-2-.91,3.23,3.23,0,0,1-.81-2.24,3.28,3.28,0,0,1,.84-2.23,2.53,2.53,0,0,1,2-1,2.29,2.29,0,0,1,2,1,3.49,3.49,0,0,1,.36.68,1.85,1.85,0,0,1,.18.59c0,.16-.16.24-.47.24h-3.82Zm0-.4h2.49c.38,0,.58-.08.58-.24a1.71,1.71,0,0,0-1.57-1.55,1.24,1.24,0,0,0-1,.48A2.47,2.47,0,0,0,181.37,76.22Z"/><path class="cls-4" d="M188.62,75.28a2.71,2.71,0,0,1,2-1.17,2.17,2.17,0,0,1,1.86,1,3.51,3.51,0,0,1,.47,2v2l0,.35a.65.65,0,0,0,.62.56l.3,0c.13,0,.2.07.21.14s-.08.16-.24.16l-.29,0a8.63,8.63,0,0,0-.89,0l-.72,0h-.28l-.21,0-.1,0a.11.11,0,0,1-.06-.11c0-.07,0-.12.14-.14l.22-.06c.19,0,.29-.22.29-.53V76.91a2.37,2.37,0,0,0-.47-1.57,1.65,1.65,0,0,0-1.34-.55,1.76,1.76,0,0,0-1.08.36,1,1,0,0,0-.47.82v3.38c0,.41.37.64,1,.67.16,0,.24.07.24.16s0,.14-.17.14l-.37,0c-.09,0-.32,0-.69,0-.77,0-1.24,0-1.39,0l-.29,0c-.1,0-.14,0-.13-.12s.05-.11.13-.15a1,1,0,0,0,.51-.32,1.17,1.17,0,0,0,.12-.61V75.81a1.41,1.41,0,0,0-.12-.7.51.51,0,0,0-.47-.19h-.31a.21.21,0,0,1-.12,0,.11.11,0,0,1-.07-.11c0-.07.07-.11.19-.14a3.89,3.89,0,0,0,.95-.3l.39-.19.28-.14a.38.38,0,0,1,.18-.06c.09,0,.12.07.12.21a2.44,2.44,0,0,0,0,.28Z"/><path class="cls-4" d="M199.74,79.37a6.89,6.89,0,0,1-1.21.86,2.5,2.5,0,0,1-2.91-.64,3.16,3.16,0,0,1-.75-2.14,3.35,3.35,0,0,1,.9-2.37,2.9,2.9,0,0,1,2.2-1,3.53,3.53,0,0,1,1.77.52V71.75q0-1.4-.75-1.35l-.26,0-.09,0a.12.12,0,0,1-.08-.11q0-.15.21-.18a4.77,4.77,0,0,0,1.72-.67.24.24,0,0,1,.14-.06c.07,0,.11.06.11.16V79c0,.55.17.82.5.82h.5a.11.11,0,0,1,.08.11c0,.1-.09.17-.26.18l-.39.05-.41.07a2.71,2.71,0,0,0-.64.15.59.59,0,0,1-.22.08c-.12,0-.17-.12-.17-.36Zm0-.89V76.07a1.32,1.32,0,0,0-.32-1,2.43,2.43,0,0,0-1.72-.69,1.75,1.75,0,0,0-1.43.67,2.75,2.75,0,0,0-.54,1.77,3.24,3.24,0,0,0,.71,2.08,2.12,2.12,0,0,0,1.68.88,1.76,1.76,0,0,0,1.17-.37A1.18,1.18,0,0,0,199.74,78.48Z"/><path class="cls-4" d="M206.13,77v-.91a1.63,1.63,0,0,0-.31-1.15,1.55,1.55,0,0,0-1.15-.44q-1,0-1,.81a2.09,2.09,0,0,0,.09.56.68.68,0,0,1,0,.23c0,.08,0,.13-.14.13a1.33,1.33,0,0,1-.63-.15c-.18-.1-.28-.2-.28-.32a1.51,1.51,0,0,1,.5-1,2.28,2.28,0,0,1,1.75-.71,2.36,2.36,0,0,1,1.54.45,1.49,1.49,0,0,1,.55,1.24v2.87a2,2,0,0,0,.17,1,.58.58,0,0,0,.55.29H208l.18,0c.08,0,.12,0,.12.1s-.12.18-.35.27a1.72,1.72,0,0,1-.66.13,1.36,1.36,0,0,1-1.09-.75,3.31,3.31,0,0,1-2,.81,1.56,1.56,0,0,1-1.1-.37,1.28,1.28,0,0,1-.4-1,1.45,1.45,0,0,1,.77-1.31A7.38,7.38,0,0,1,206.13,77Zm0,.29a3.82,3.82,0,0,0-1.75.51,1.23,1.23,0,0,0-.62,1.06A1,1,0,0,0,204.85,80a1.46,1.46,0,0,0,1-.4,1.15,1.15,0,0,0,.25-.81Z"/><path class="cls-4" d="M211,75.28a2.75,2.75,0,0,1,2-1.17,2.15,2.15,0,0,1,1.85,1,3.43,3.43,0,0,1,.47,2v2l0,.35A.64.64,0,0,0,216,80l.31,0c.13,0,.2.07.2.14s-.07.16-.24.16l-.28,0a8.63,8.63,0,0,0-.89,0l-.73,0h-.27l-.21,0-.11,0a.12.12,0,0,1-.05-.11.15.15,0,0,1,.13-.14l.22-.06c.2,0,.3-.22.3-.53V76.91a2.37,2.37,0,0,0-.47-1.57,1.66,1.66,0,0,0-1.34-.55,1.71,1.71,0,0,0-1.08.36A1,1,0,0,0,211,76v3.38c0,.41.36.64,1,.67.16,0,.24.07.24.16s-.06.14-.17.14l-.37,0c-.1,0-.32,0-.69,0-.78,0-1.24,0-1.39,0l-.3,0c-.09,0-.13,0-.13-.12a.2.2,0,0,1,.14-.15.89.89,0,0,0,.5-.32,1.06,1.06,0,0,0,.13-.61V75.81a1.41,1.41,0,0,0-.12-.7.52.52,0,0,0-.47-.19h-.32a.2.2,0,0,1-.11,0,.11.11,0,0,1-.07-.11c0-.07.06-.11.19-.14a3.82,3.82,0,0,0,.94-.3l.39-.19.29-.14a.38.38,0,0,1,.17-.06q.13,0,.12.21c0,.08,0,.18,0,.28Z"/><path class="cls-4" d="M220.49,74.11a3.9,3.9,0,0,1,1.13.16c.33.11.49.23.49.36v.22l.06.56c0,.26-.06.39-.18.4s-.13-.06-.21-.21a1.94,1.94,0,0,0-.79-.73,2.14,2.14,0,0,0-1.07-.31,1.36,1.36,0,0,0-1.17.66,2.88,2.88,0,0,0-.45,1.68A3.11,3.11,0,0,0,219,79a2.12,2.12,0,0,0,1.7.84,2.48,2.48,0,0,0,1.6-.66.26.26,0,0,1,.18-.09c.07,0,.11,0,.11.1s-.12.27-.35.47a3.13,3.13,0,0,1-2.18.82,2.53,2.53,0,0,1-2-.85,3,3,0,0,1-.79-2.11,3.35,3.35,0,0,1,.93-2.39A3,3,0,0,1,220.49,74.11Z"/><path class="cls-4" d="M224.29,76.62v.16a3.26,3.26,0,0,0,.69,2.11,2.14,2.14,0,0,0,1.71.85,3,3,0,0,0,1.74-.72.27.27,0,0,1,.11,0c.07,0,.1,0,.1.12s-.17.35-.51.62a3.27,3.27,0,0,1-2,.74,2.57,2.57,0,0,1-2-.91,3.23,3.23,0,0,1-.81-2.24,3.28,3.28,0,0,1,.84-2.23,2.5,2.5,0,0,1,2-1,2.3,2.3,0,0,1,2,1,5.07,5.07,0,0,1,.36.68,1.85,1.85,0,0,1,.18.59q0,.24-.48.24h-3.81Zm0-.4h2.48c.39,0,.58-.08.58-.24a1.47,1.47,0,0,0-.49-1.06,1.49,1.49,0,0,0-1.07-.49,1.23,1.23,0,0,0-1,.48A2.4,2.4,0,0,0,224.33,76.22Z"/><path class="cls-4" d="M236.6,70.06a3.43,3.43,0,0,1,1.32.23l.51.21a.31.31,0,0,0,.13,0,.27.27,0,0,0,.18-.07l.1-.09s0,0,.08,0,.18.12.18.36c0,.08,0,.33.1.74l.12.75c0,.17,0,.27,0,.31s0,.22-.15.22-.16-.12-.24-.35a2.5,2.5,0,0,0-1.07-1.31,3.31,3.31,0,0,0-1.8-.51,1.91,1.91,0,0,0-1.32.46,1.5,1.5,0,0,0-.53,1.17,1.74,1.74,0,0,0,.34,1.06,2,2,0,0,0,.66.56c.24.11.82.33,1.74.63,1.81.59,2.71,1.56,2.71,2.91a2.83,2.83,0,0,1-1,2.24,3.72,3.72,0,0,1-2.55.87,5.21,5.21,0,0,1-1.24-.16,3.24,3.24,0,0,1-1-.37.58.58,0,0,1-.17-.19,2.84,2.84,0,0,1-.13-.51s-.07-.26-.19-.67a4.32,4.32,0,0,1-.19-.94q0-.21.15-.21t.24.36a2.88,2.88,0,0,0,1.11,1.53,3.09,3.09,0,0,0,1.84.62,2.55,2.55,0,0,0,1.71-.6,1.82,1.82,0,0,0,.69-1.44,1.74,1.74,0,0,0-.64-1.37,7.3,7.3,0,0,0-1.9-.81,6.11,6.11,0,0,1-2.3-1.22,2.32,2.32,0,0,1-.68-1.73,2.44,2.44,0,0,1,.88-1.93A3.4,3.4,0,0,1,236.6,70.06Z"/><path class="cls-4" d="M244.1,74.11a3.1,3.1,0,0,1,2.26.93,3,3,0,0,1,.95,2.21,3.06,3.06,0,0,1-.93,2.29,3.22,3.22,0,0,1-2.35.91,3.11,3.11,0,0,1-2.29-.88,3.22,3.22,0,0,1,0-4.52A3.21,3.21,0,0,1,244.1,74.11Zm-.19.3a1.78,1.78,0,0,0-1.47.68,2.7,2.7,0,0,0-.56,1.77,3.8,3.8,0,0,0,.7,2.34,2.07,2.07,0,0,0,1.73.94,1.71,1.71,0,0,0,1.43-.66,2.87,2.87,0,0,0,.53-1.81,3.87,3.87,0,0,0-.66-2.35A2,2,0,0,0,243.91,74.41Z"/><path class="cls-4" d="M250.27,70v8.59a2.33,2.33,0,0,0,.14.93c.1.24.41.41.9.49.14,0,.21.07.22.15a.14.14,0,0,1-.16.16l-.19,0-.33,0h-1c-.47,0-.75,0-.86,0l-.28,0c-.13,0-.19,0-.2-.14s.07-.15.21-.18a.79.79,0,0,0,.44-.26.84.84,0,0,0,.11-.51V71.11c0-.45-.15-.67-.46-.67h-.49a.14.14,0,0,1-.09-.12c0-.07.06-.13.19-.16a3.45,3.45,0,0,0,.45-.14l.45-.18a4.39,4.39,0,0,0,.72-.35.27.27,0,0,1,.14-.06c.08,0,.11.1.11.32Z"/><path class="cls-4" d="M257.17,79.35a2.56,2.56,0,0,1-2.07,1.1,2.06,2.06,0,0,1-1.6-.63,2.58,2.58,0,0,1-.58-1.77V75.14a.72.72,0,0,0-.15-.52.91.91,0,0,0-.57-.17c-.13,0-.18-.06-.18-.15s.16-.13.45-.15l.56,0a3.58,3.58,0,0,0,.54-.1l.17,0c.13,0,.19.11.19.34v.11l0,3.28V78l.12.89a1.61,1.61,0,0,0,1.48,1.08,1.87,1.87,0,0,0,1.15-.38,1.07,1.07,0,0,0,.51-.86V75.18a.83.83,0,0,0-.15-.57.71.71,0,0,0-.53-.15c-.16,0-.23,0-.23-.14s.08-.16.26-.17h.24l.52,0a2.35,2.35,0,0,0,.57-.11l.17,0c.11,0,.16.08.16.26V79a1.51,1.51,0,0,0,.12.74.55.55,0,0,0,.49.18H259c.11,0,.16,0,.17.12s-.14.16-.43.18l-.46,0a4.16,4.16,0,0,0-.61,0,1.31,1.31,0,0,1-.27,0q-.24,0-.24-.69Z"/><path class="cls-4" d="M261.82,75v3.69a1.38,1.38,0,0,0,.21.92,1.09,1.09,0,0,0,.86.32,1.6,1.6,0,0,0,.75-.16l.38-.18,0,0c.06,0,.09,0,.09.08s-.19.33-.58.52a2.4,2.4,0,0,1-1.07.28c-1.13,0-1.69-.59-1.69-1.76V75h-.65c-.13,0-.19,0-.19-.11s.06-.16.19-.26a6.39,6.39,0,0,0,1.31-1.46c.13-.22.23-.32.28-.32s.1.06.1.19l0,1.26h1.56a.88.88,0,0,0,.5-.11.37.37,0,0,1,.16-.09c.06,0,.08,0,.08.08a.94.94,0,0,1-.07.19l-.17.42a.31.31,0,0,1-.32.21Z"/><path class="cls-4" d="M266.65,79.07a1.53,1.53,0,0,0,.11.7.68.68,0,0,0,.48.23l.34,0c.18,0,.26.09.26.19s-.07.12-.2.12l-.48,0-.51,0h-.47l-.54,0-.23,0a1.49,1.49,0,0,1-.26,0c-.13,0-.2,0-.2-.13a.17.17,0,0,1,.13-.16l.14,0a.55.55,0,0,0,.33-.28,1.63,1.63,0,0,0,.09-.64V75.92a1.72,1.72,0,0,0-.12-.8c-.08-.12-.24-.18-.5-.18s-.28,0-.27-.11.13-.14.37-.22a7.58,7.58,0,0,0,1.05-.47l.38-.18c.07,0,.1.06.1.18Zm-.46-8c.12,0,.24.1.36.29l.18.28a.32.32,0,0,1,.07.19.74.74,0,0,1-.25.47c-.17.2-.31.3-.41.3s-.23-.1-.39-.29a.56.56,0,0,1,0-.94C266,71.19,266.09,71.09,266.19,71.09Z"/><path class="cls-4" d="M271.85,74.11a3.1,3.1,0,0,1,2.26.93,3,3,0,0,1,.95,2.21,3.06,3.06,0,0,1-.93,2.29,3.22,3.22,0,0,1-2.35.91,3.12,3.12,0,0,1-2.29-.88,3.22,3.22,0,0,1,.05-4.52A3.21,3.21,0,0,1,271.85,74.11Zm-.19.3a1.78,1.78,0,0,0-1.47.68,2.7,2.7,0,0,0-.56,1.77,3.8,3.8,0,0,0,.7,2.34,2.07,2.07,0,0,0,1.74.94,1.73,1.73,0,0,0,1.43-.66,2.93,2.93,0,0,0,.52-1.81,3.87,3.87,0,0,0-.66-2.35A2,2,0,0,0,271.66,74.41Z"/><path class="cls-4" d="M278.16,75.28a2.71,2.71,0,0,1,2-1.17,2.18,2.18,0,0,1,1.86,1,3.51,3.51,0,0,1,.46,2v2l0,.35a.64.64,0,0,0,.61.56l.31,0c.13,0,.2.07.21.14s-.08.16-.24.16l-.29,0a8.63,8.63,0,0,0-.89,0l-.72,0h-.28l-.21,0-.11,0a.12.12,0,0,1-.05-.11c0-.07.05-.12.14-.14l.22-.06c.19,0,.29-.22.29-.53V76.91a2.37,2.37,0,0,0-.47-1.57,1.65,1.65,0,0,0-1.34-.55,1.76,1.76,0,0,0-1.08.36,1,1,0,0,0-.47.82v3.38c0,.41.37.64,1,.67.16,0,.24.07.24.16s-.05.14-.17.14l-.37,0c-.09,0-.32,0-.69,0-.78,0-1.24,0-1.39,0l-.29,0c-.1,0-.14,0-.14-.12a.23.23,0,0,1,.14-.15.89.89,0,0,0,.5-.32,1.06,1.06,0,0,0,.13-.61V75.81a1.41,1.41,0,0,0-.12-.7.51.51,0,0,0-.47-.19h-.31a.21.21,0,0,1-.12,0,.11.11,0,0,1-.07-.11c0-.07.07-.11.19-.14a4,4,0,0,0,.95-.3l.38-.19.29-.14a.38.38,0,0,1,.18-.06c.08,0,.12.07.11.21v1.11Z"/></g></g></g></g></svg>